<?xml version="1.0" standalone="no"?>
<!DOCTYPE svg PUBLIC "-//W3C//DTD SVG 20010904//EN"
 "http://www.w3.org/TR/2001/REC-SVG-20010904/DTD/svg10.dtd">
<svg version="1.0" xmlns="http://www.w3.org/2000/svg"
 width="1080.000000pt" height="1080.000000pt" viewBox="0 0 1080.000000 1080.000000"
 preserveAspectRatio="xMidYMid meet">
<metadata>
Created by potrace 1.14, written by Peter Selinger 2001-2017
</metadata>
<g transform="translate(0.000000,1080.000000) scale(0.100000,-0.100000)"
fill="#000000" stroke="none">
<path d="M4883 10793 c4 -6 -1 -14 -10 -18 -10 -3 -19 -1 -21 4 -2 6 -9 8 -15
4 -21 -13 -87 -21 -81 -9 3 6 -2 2 -10 -8 -9 -11 -16 -15 -16 -9 0 6 -18 10
-40 10 -28 -1 -39 -5 -36 -13 5 -13 -11 -13 -31 -1 -8 5 -13 4 -13 -3 0 -6
-10 -8 -24 -4 -13 3 -27 1 -31 -5 -4 -8 -12 -8 -27 0 -16 9 -19 8 -13 -1 6
-10 1 -12 -19 -8 -18 4 -29 1 -33 -8 -3 -8 -9 -11 -14 -8 -5 3 -7 11 -3 17 3
7 -1 4 -9 -5 -14 -18 -33 -25 -23 -10 3 5 -1 9 -9 9 -8 0 -12 -4 -9 -9 3 -4
-6 -8 -20 -8 -13 0 -27 -6 -29 -12 -4 -10 -6 -10 -6 -1 -1 7 -8 10 -16 7 -8
-4 -13 -10 -10 -14 3 -5 -8 -5 -25 0 -20 6 -30 5 -30 -2 0 -6 -3 -8 -7 -5 -3
4 -13 1 -21 -6 -13 -10 -15 -9 -8 3 4 8 1 7 -7 -3 -11 -14 -16 -15 -20 -5 -4
11 -6 11 -6 0 -1 -8 -6 -10 -13 -5 -19 11 -39 13 -32 2 3 -5 10 -6 16 -3 7 4
8 2 4 -4 -4 -6 -13 -9 -21 -5 -8 3 -15 0 -15 -7 0 -10 -3 -10 -15 0 -10 9 -15
9 -15 1 0 -6 -5 -11 -11 -11 -5 0 -7 6 -4 13 4 6 -1 3 -9 -7 -12 -15 -16 -16
-16 -5 0 12 -2 12 -10 -1 -5 -8 -10 -11 -10 -6 0 6 -7 1 -16 -10 -8 -10 -13
-13 -9 -6 3 6 1 12 -4 12 -6 0 -11 -6 -11 -12 0 -10 -3 -9 -9 1 -7 12 -12 11
-30 -1 -11 -8 -18 -19 -13 -24 4 -4 -1 -2 -10 5 -10 7 -23 9 -30 5 -7 -5 -19
-9 -27 -11 -8 -1 -18 -8 -22 -15 -7 -11 -9 -11 -9 0 0 7 -5 10 -10 7 -6 -4 -7
-12 -3 -18 4 -7 0 -6 -10 2 -9 7 -17 9 -17 3 0 -5 -7 -13 -16 -16 -15 -6 -15
-4 -3 11 12 16 11 16 -8 0 -12 -11 -27 -16 -32 -12 -6 3 -11 -2 -11 -12 0 -15
-2 -16 -10 -3 -5 8 -10 10 -10 4 0 -7 -7 -15 -16 -18 -14 -5 -15 -4 -4 9 19
23 3 18 -21 -7 -12 -13 -19 -17 -15 -10 4 6 2 12 -3 12 -6 0 -11 -5 -11 -11 0
-6 -7 -9 -15 -5 -10 3 -15 -1 -15 -12 0 -13 -2 -14 -9 -4 -7 11 -9 11 -14 -2
-4 -9 -12 -16 -19 -15 -10 0 -10 2 0 6 6 2 12 9 12 15 0 6 -8 4 -18 -5 -10
-10 -22 -14 -25 -10 -4 3 -7 1 -7 -6 0 -7 -4 -10 -9 -7 -5 3 -12 -1 -15 -10
-5 -14 -9 -14 -23 -3 -14 12 -16 12 -8 0 6 -11 4 -13 -8 -8 -12 4 -17 1 -17
-11 0 -15 -2 -15 -10 -2 -9 13 -12 13 -23 -1 -6 -9 -18 -14 -26 -11 -8 3 -11
0 -7 -7 5 -7 1 -9 -8 -5 -9 3 -16 1 -16 -6 0 -6 -4 -8 -10 -5 -5 3 -10 1 -10
-6 0 -8 -4 -8 -16 1 -12 11 -15 11 -12 -1 2 -8 -3 -13 -12 -11 -8 2 -20 -5
-27 -14 -7 -10 -13 -14 -13 -10 0 5 -7 3 -15 -4 -9 -7 -18 -10 -22 -6 -3 3
-13 -3 -21 -15 -10 -15 -17 -17 -27 -9 -9 8 -14 7 -18 -4 -4 -9 -15 -13 -26
-11 -13 2 -18 -1 -15 -10 3 -7 0 -16 -7 -21 -8 -4 -10 -3 -5 4 11 18 -10 14
-28 -4 -9 -9 -16 -11 -16 -4 0 6 -5 8 -10 5 -6 -4 -8 -11 -4 -16 3 -6 -2 -9
-12 -7 -11 2 -18 -2 -17 -8 1 -6 -9 -10 -23 -8 -15 1 -22 -2 -17 -9 4 -7 0 -8
-11 -4 -9 4 -15 3 -12 -2 3 -5 -1 -12 -10 -15 -10 -4 -13 -2 -9 7 4 6 -3 1
-14 -13 -13 -15 -21 -20 -21 -11 0 8 -10 2 -25 -15 -20 -22 -24 -24 -19 -9 5
17 3 17 -14 -4 -11 -13 -24 -21 -31 -17 -6 4 -11 1 -11 -8 0 -9 -6 -13 -14
-10 -8 3 -17 0 -21 -5 -3 -6 -11 -8 -17 -5 -8 5 -9 1 -5 -10 4 -9 3 -14 -2
-11 -5 3 -12 1 -16 -5 -3 -5 -15 -10 -26 -10 -10 0 -19 -4 -19 -10 0 -5 -6
-10 -14 -10 -8 0 -22 -10 -30 -22 -9 -12 -16 -17 -16 -10 0 7 -5 10 -10 7 -6
-4 -8 -11 -5 -16 4 -5 -2 -6 -11 -2 -14 5 -16 3 -11 -12 6 -14 5 -15 -6 -7
-10 9 -17 7 -27 -8 -10 -15 -17 -17 -27 -8 -11 8 -12 7 -6 -7 5 -14 3 -17 -10
-12 -10 4 -16 2 -14 -6 1 -7 -6 -11 -15 -11 -10 1 -15 -2 -12 -7 2 -5 -7 -11
-21 -15 -16 -4 -24 -12 -21 -20 3 -8 -2 -11 -15 -9 -10 2 -19 -1 -19 -6 0 -6
-4 -7 -10 -4 -6 3 -7 -1 -4 -9 3 -9 2 -16 -4 -16 -6 0 -13 6 -15 13 -3 6 -6 1
-6 -13 -1 -18 -4 -21 -10 -11 -6 9 -11 10 -15 2 -4 -6 -4 -11 1 -11 4 0 -14
-11 -42 -24 -27 -14 -46 -25 -42 -25 12 -1 -19 -31 -32 -31 -6 0 -16 -9 -23
-20 -7 -11 -21 -20 -31 -20 -11 0 -21 -9 -24 -21 -4 -16 -8 -17 -14 -7 -7 10
-9 9 -9 -3 0 -26 -24 -41 -40 -26 -10 9 -11 9 -6 0 5 -8 1 -13 -11 -13 -15 0
-16 -2 -3 -10 8 -5 13 -10 10 -11 -3 0 -13 -2 -24 -4 -20 -4 -57 -39 -50 -49
2 -3 1 -4 -3 -1 -10 8 -33 -16 -26 -28 3 -5 2 -8 -3 -5 -14 9 -49 -8 -49 -23
0 -8 -9 -13 -18 -12 -11 0 -16 -4 -13 -12 2 -7 -4 -15 -15 -18 -10 -3 -19 -12
-19 -21 0 -10 -5 -13 -17 -9 -12 5 -14 3 -8 -7 6 -10 4 -12 -10 -6 -16 6 -16
4 -4 -11 11 -13 11 -15 1 -9 -9 5 -19 1 -28 -13 -8 -12 -22 -21 -31 -21 -9 0
-14 -3 -10 -6 9 -10 -21 -36 -33 -29 -6 4 -9 3 -8 -2 2 -4 -5 -19 -15 -33 -9
-13 -17 -21 -17 -17 0 3 -20 -13 -44 -38 -24 -24 -47 -41 -52 -37 -4 4 -4 -1
-1 -11 4 -11 3 -16 -3 -12 -6 3 -13 -1 -16 -9 -3 -9 -11 -13 -17 -9 -6 4 -8 0
-4 -10 3 -10 2 -17 -3 -17 -5 0 -23 -13 -40 -30 -17 -16 -27 -30 -23 -30 3 0
-6 -13 -22 -30 -15 -16 -33 -27 -38 -23 -6 3 -7 1 -3 -5 4 -7 2 -12 -4 -12 -6
0 -8 -5 -4 -12 5 -8 2 -9 -9 -5 -9 3 -16 3 -16 -1 3 -20 -3 -32 -16 -32 -8 0
-14 -3 -14 -7 4 -23 -3 -32 -18 -26 -12 5 -15 2 -10 -9 6 -18 -45 -73 -57 -61
-4 5 -6 3 -5 -2 2 -6 -1 -20 -5 -33 -6 -19 -10 -21 -22 -11 -12 9 -13 9 -9 -3
4 -9 -1 -18 -12 -22 -15 -6 -15 -8 -3 -16 13 -8 12 -10 -2 -10 -10 0 -18 -6
-18 -14 0 -8 -9 -21 -20 -29 -11 -8 -17 -17 -12 -22 4 -4 -1 -5 -11 -2 -10 4
-16 3 -13 -2 3 -4 -6 -19 -20 -32 -13 -12 -22 -29 -19 -37 2 -7 0 -10 -5 -7
-6 3 -10 -1 -10 -10 0 -8 -7 -18 -15 -21 -8 -4 -12 -10 -9 -15 3 -5 -2 -9 -11
-9 -9 0 -13 -4 -10 -10 3 -5 -5 -21 -19 -33 -14 -13 -23 -27 -19 -30 3 -4 1
-7 -6 -7 -7 0 -9 -4 -6 -10 6 -9 -8 -15 -29 -11 -5 1 -4 -4 3 -13 10 -12 8
-16 -8 -21 -12 -3 -21 -11 -21 -16 0 -6 6 -7 13 -4 6 4 4 0 -7 -9 -10 -8 -15
-20 -10 -27 4 -8 3 -10 -4 -5 -7 4 -12 2 -12 -4 0 -6 -5 -8 -12 -4 -8 5 -9 2
-5 -10 6 -14 3 -17 -9 -12 -13 5 -14 3 -6 -6 11 -14 -10 -43 -22 -30 -4 3 -4
-1 0 -11 3 -10 1 -17 -5 -17 -6 0 -11 -9 -11 -21 0 -15 -5 -19 -15 -15 -8 3
-14 2 -13 -2 1 -4 -4 -20 -10 -35 -7 -16 -12 -32 -12 -37 0 -4 -7 -11 -16 -14
-8 -3 -12 -10 -9 -16 3 -5 1 -10 -5 -10 -7 0 -10 -7 -6 -15 3 -9 0 -15 -9 -15
-8 0 -14 -6 -12 -12 1 -7 -4 -12 -12 -10 -9 2 -12 -5 -9 -22 3 -14 2 -23 -2
-21 -4 3 -14 -3 -21 -12 -10 -12 -10 -14 -1 -9 16 10 15 -2 -2 -19 -7 -8 -17
-11 -22 -7 -5 4 -3 0 4 -9 10 -14 10 -18 -3 -23 -9 -3 -13 -10 -10 -16 3 -5 1
-10 -4 -10 -6 0 -11 -7 -11 -16 0 -9 -5 -12 -12 -8 -8 5 -7 0 2 -11 8 -10 11
-16 5 -13 -5 3 -15 0 -22 -7 -10 -11 -10 -15 0 -19 7 -3 4 -7 -9 -11 -15 -5
-20 -14 -19 -36 1 -16 0 -27 -3 -24 -8 8 -43 -55 -37 -66 4 -5 1 -9 -5 -9 -6
0 -8 -4 -5 -10 3 -5 1 -10 -5 -10 -6 0 -8 -5 -4 -12 5 -8 2 -9 -11 -4 -15 5
-16 4 -5 -9 9 -11 9 -15 1 -15 -7 0 -9 -5 -6 -10 3 -6 -1 -13 -10 -16 -13 -6
-14 -8 -3 -15 10 -7 10 -9 1 -9 -7 0 -13 -9 -13 -21 0 -14 -5 -19 -13 -16 -8
3 -14 -1 -14 -9 0 -7 4 -11 9 -8 4 3 8 1 8 -3 0 -5 -9 -14 -20 -21 -17 -10
-18 -16 -10 -32 6 -11 7 -19 3 -18 -4 2 -8 1 -8 -2 0 -3 -8 -19 -19 -34 -11
-18 -13 -26 -5 -21 8 3 6 0 -3 -8 -14 -11 -15 -16 -5 -26 9 -10 8 -11 -5 -6
-13 5 -16 1 -14 -19 2 -14 -3 -31 -11 -38 -11 -9 -12 -13 -1 -20 9 -7 5 -8
-11 -4 -18 4 -21 2 -12 -7 15 -15 14 -30 -1 -21 -8 5 -7 0 2 -11 8 -10 10 -16
5 -13 -6 4 -17 -2 -24 -14 -7 -11 -8 -17 -2 -13 6 3 11 2 11 -4 0 -5 -4 -11
-9 -13 -5 -1 -11 -12 -13 -23 -1 -11 -10 -26 -18 -33 -13 -10 -12 -11 5 -6 17
5 17 3 -4 -14 -18 -15 -21 -21 -10 -26 11 -5 11 -7 2 -12 -7 -3 -13 -16 -13
-29 0 -34 -10 -56 -23 -48 -6 4 -7 1 -2 -7 4 -7 2 -16 -6 -21 -11 -6 -11 -9
-1 -9 9 0 9 -5 -2 -22 -8 -13 -14 -35 -12 -50 2 -17 -4 -34 -15 -44 -16 -14
-17 -20 -6 -32 10 -13 9 -15 -7 -9 -15 6 -17 5 -8 -6 9 -10 8 -18 -2 -33 -10
-13 -11 -24 -4 -38 8 -14 7 -17 -3 -11 -9 6 -11 3 -6 -8 4 -12 1 -17 -11 -17
-15 0 -15 -2 -2 -10 13 -9 13 -11 0 -20 -8 -5 -11 -10 -6 -10 5 0 3 -7 -4 -15
-11 -13 -10 -15 6 -9 18 5 18 5 2 -9 -14 -11 -15 -16 -5 -26 9 -10 8 -11 -5
-6 -18 7 -19 -9 -4 -34 7 -10 6 -12 -4 -6 -10 6 -12 3 -8 -13 4 -12 2 -22 -4
-22 -5 0 -6 -4 -3 -10 3 -5 0 -10 -7 -10 -10 0 -10 -2 1 -9 9 -6 10 -11 2 -15
-15 -10 -14 -29 2 -21 6 4 3 -1 -7 -9 -12 -9 -14 -16 -7 -16 9 0 7 -5 -4 -16
-11 -12 -13 -20 -5 -29 8 -9 8 -15 0 -20 -5 -3 -10 -11 -10 -16 0 -6 5 -7 12
-3 7 5 8 3 4 -5 -5 -7 -15 -10 -25 -7 -13 5 -13 4 2 -8 16 -13 16 -15 2 -30
-12 -12 -13 -16 -3 -16 10 0 9 -3 -2 -10 -13 -9 -13 -10 0 -10 13 0 13 -1 0
-10 -13 -9 -13 -10 0 -10 13 0 13 -2 1 -9 -8 -5 -11 -16 -8 -24 3 -9 1 -17 -6
-20 -14 -4 -16 -39 -2 -49 7 -5 6 -11 -1 -15 -6 -5 -10 -18 -9 -31 1 -13 -5
-27 -14 -33 -15 -10 -15 -10 0 -6 9 3 16 -1 16 -9 0 -8 -7 -14 -14 -14 -12 0
-11 -3 1 -16 17 -17 21 -28 7 -20 -14 9 -21 -20 -8 -34 9 -10 9 -11 0 -6 -7 4
-13 3 -13 -3 0 -5 6 -12 13 -14 9 -4 9 -6 0 -6 -7 -1 -13 -8 -13 -17 0 -9 5
-12 13 -8 6 4 5 -1 -4 -12 -18 -21 -22 -57 -6 -47 6 3 7 1 4 -4 -4 -6 -9 -27
-12 -47 -3 -27 -1 -35 8 -29 9 5 9 3 0 -8 -16 -20 -16 -699 0 -699 8 0 8 -3 2
-8 -15 -10 -19 -46 -5 -37 9 6 9 2 1 -12 -7 -14 -7 -23 1 -31 9 -9 9 -12 -2
-12 -10 0 -9 -4 3 -18 12 -13 13 -21 6 -32 -9 -12 -10 -12 -5 3 3 11 2 16 -4
12 -14 -9 -12 -21 5 -39 11 -10 12 -17 4 -22 -8 -4 -7 -9 2 -15 12 -7 11 -9
-1 -10 -10 0 -8 -3 5 -9 18 -8 18 -9 2 -9 -10 -1 -15 -6 -12 -11 4 -6 9 -8 13
-6 4 2 7 -11 8 -29 0 -19 -3 -32 -7 -29 -4 2 -5 -5 -2 -16 3 -11 8 -18 12 -15
10 5 7 -27 -3 -43 -4 -6 -3 -12 2 -12 6 0 13 -7 16 -16 4 -10 2 -13 -6 -8 -8
5 -9 2 -5 -10 4 -10 7 -20 7 -22 0 -3 6 -2 12 1 7 4 4 -1 -6 -9 -20 -16 -20
-16 0 -17 10 0 13 -3 7 -6 -10 -3 -10 -10 -2 -25 6 -11 7 -18 2 -15 -5 4 -10
0 -10 -8 0 -8 4 -12 8 -10 4 3 10 -2 13 -11 8 -22 8 -26 -4 -19 -6 3 -7 -1 -4
-9 3 -9 11 -13 18 -10 6 3 2 -2 -8 -10 -15 -12 -16 -16 -5 -16 11 0 15 -11 15
-41 0 -24 6 -44 15 -50 10 -6 10 -9 2 -9 -7 0 -13 -5 -13 -11 0 -5 5 -7 11 -4
6 4 10 1 8 -6 -3 -28 1 -60 9 -56 4 3 8 -15 9 -40 0 -25 7 -49 13 -53 9 -6 9
-9 -1 -13 -10 -4 -10 -6 -1 -6 6 -1 12 -6 12 -12 0 -5 -4 -7 -10 -4 -6 3 -7
-1 -4 -9 3 -9 10 -14 14 -11 5 3 6 -5 2 -17 -4 -15 -2 -19 7 -13 10 6 11 3 2
-12 -11 -22 -6 -33 12 -29 7 2 9 1 5 -1 -5 -3 -8 -11 -8 -19 0 -9 5 -12 11 -8
8 4 8 0 0 -15 -11 -20 -8 -25 12 -22 5 1 6 -3 2 -9 -4 -6 -1 -18 7 -27 9 -12
9 -15 1 -9 -7 4 -13 2 -13 -3 0 -6 4 -11 8 -11 4 0 9 -12 10 -27 1 -15 8 -30
15 -35 9 -6 8 -8 -3 -8 -12 0 -12 -2 -2 -9 8 -4 14 -12 15 -17 1 -5 6 -8 10
-6 5 1 6 -2 2 -8 -4 -6 -1 -18 7 -27 7 -9 8 -14 2 -10 -7 4 -15 0 -18 -9 -3
-8 -2 -12 3 -9 5 3 12 1 16 -5 3 -5 1 -10 -4 -10 -6 0 -11 -5 -11 -10 0 -7 7
-7 21 0 18 10 19 9 11 -7 -7 -12 -7 -25 -1 -36 6 -9 7 -17 3 -17 -4 0 1 -7 12
-16 19 -15 19 -16 -1 -10 -17 5 -16 3 5 -15 14 -11 19 -18 13 -14 -7 3 -13 1
-13 -4 0 -6 5 -11 10 -11 6 0 10 -9 10 -20 0 -11 6 -20 13 -20 8 0 7 -4 -3
-10 -11 -7 -11 -10 -2 -10 7 0 10 -4 7 -10 -3 -5 -1 -10 5 -10 6 0 8 -4 5 -10
-3 -5 0 -10 7 -10 9 0 9 -3 -2 -10 -13 -8 -13 -10 2 -10 11 0 15 -6 11 -20 -3
-12 0 -20 6 -20 7 0 9 5 5 12 -4 7 -3 8 4 4 8 -4 8 -15 2 -31 -8 -20 -6 -25 6
-25 11 0 14 -8 12 -27 -2 -22 1 -28 15 -27 13 2 15 -1 7 -11 -8 -9 -6 -14 6
-19 14 -5 14 -9 3 -23 -10 -12 -10 -14 -2 -9 9 5 13 1 13 -13 0 -11 8 -25 18
-30 11 -7 12 -10 3 -11 -9 0 -7 -5 6 -17 10 -10 14 -16 8 -13 -6 3 -3 -2 6
-11 13 -12 15 -19 6 -28 -8 -8 -8 -11 2 -11 8 0 11 -6 7 -15 -3 -8 -2 -14 2
-14 22 4 30 -3 25 -21 -3 -12 0 -20 7 -20 7 0 10 -8 7 -20 -3 -11 -1 -20 5
-20 5 0 6 -6 2 -13 -5 -8 -2 -7 9 2 15 12 17 12 11 -4 -6 -14 -4 -16 7 -10 12
8 12 6 0 -8 -9 -11 -10 -17 -2 -17 6 0 11 -7 11 -16 0 -8 4 -12 10 -9 6 3 7
-1 4 -9 -4 -10 1 -18 10 -22 14 -5 14 -9 4 -22 -7 -9 -8 -13 -3 -10 6 4 17 -2
24 -14 10 -16 10 -19 -1 -12 -10 6 -10 4 1 -9 7 -9 17 -14 22 -11 12 7 11 -9
-1 -24 -6 -6 -7 -10 -4 -7 11 7 36 -25 38 -49 1 -16 6 -23 17 -21 9 2 16 -3
16 -10 0 -8 -7 -11 -16 -7 -9 3 -4 -6 11 -20 16 -14 28 -31 28 -37 0 -18 26
-41 36 -33 5 4 3 0 -4 -10 -11 -14 -9 -19 10 -32 12 -9 18 -16 13 -16 -5 0 -1
-6 10 -14 12 -9 16 -20 12 -35 -4 -17 -3 -20 7 -12 9 8 16 4 24 -14 7 -14 17
-36 23 -49 6 -13 21 -29 33 -34 11 -6 15 -11 9 -11 -7 -1 -13 -6 -13 -11 0 -6
3 -9 8 -8 4 2 9 -1 11 -7 3 -5 11 -16 18 -23 7 -8 10 -19 6 -25 -4 -6 0 -8 10
-4 11 4 14 2 10 -9 -3 -9 1 -14 13 -14 16 0 17 -2 4 -10 -13 -9 -13 -10 0 -10
20 0 42 -47 26 -54 -6 -3 0 -3 13 0 16 4 21 3 17 -5 -4 -6 0 -14 9 -17 13 -6
14 -8 3 -15 -10 -7 -9 -9 5 -9 11 0 17 -6 15 -17 -2 -10 2 -17 8 -16 7 1 20
-8 30 -20 13 -15 14 -18 4 -12 -9 6 -8 2 3 -7 10 -10 16 -22 12 -28 -4 -6 -3
-10 2 -9 22 4 32 -2 27 -16 -4 -10 0 -15 11 -15 9 0 14 -4 11 -9 -3 -5 2 -15
11 -22 14 -12 16 -12 8 0 -5 9 -4 12 3 7 6 -4 8 -14 5 -23 -5 -12 -3 -14 7 -8
10 6 12 4 7 -9 -6 -14 -3 -17 9 -12 12 4 15 2 10 -9 -3 -9 0 -15 9 -15 8 0 15
-7 15 -16 0 -8 4 -12 10 -9 5 3 10 1 10 -4 0 -25 20 -51 39 -51 6 0 10 -4 9
-9 -2 -5 2 -10 7 -11 14 -2 34 -43 27 -55 -3 -5 1 -4 10 3 14 11 17 10 23 -8
4 -12 11 -17 18 -13 8 4 8 1 -1 -9 -10 -13 -10 -17 5 -23 10 -5 23 -9 28 -9 6
-1 9 -11 9 -24 -1 -19 1 -20 14 -10 11 9 14 9 9 1 -4 -6 1 -18 13 -26 11 -7
17 -17 13 -20 -3 -4 1 -7 11 -7 9 0 15 -4 12 -8 -3 -5 4 -15 15 -23 38 -26 55
-41 39 -33 -9 4 -7 -2 5 -13 11 -11 23 -19 28 -16 4 2 7 -2 7 -9 0 -7 10 -18
22 -23 13 -6 27 -20 33 -32 5 -13 14 -23 19 -23 5 0 19 -12 32 -26 13 -14 29
-22 34 -19 5 3 7 0 4 -8 -6 -16 34 -50 48 -41 5 3 7 0 6 -8 -2 -7 2 -12 9 -11
8 2 10 -4 6 -15 -6 -15 -5 -15 11 -3 9 8 16 10 15 5 -3 -18 1 -35 8 -31 10 6
34 -19 26 -27 -4 -3 1 -6 10 -6 9 0 17 -8 18 -17 0 -12 2 -13 6 -5 3 9 10 7
24 -9 10 -12 19 -27 19 -32 0 -6 3 -7 6 -4 10 9 46 -12 39 -23 -3 -6 0 -7 8
-4 8 3 29 -12 50 -37 21 -23 37 -38 37 -33 1 5 12 -4 26 -21 15 -16 23 -24 20
-18 -9 17 2 16 19 -1 8 -7 11 -16 8 -20 -4 -3 3 -6 15 -6 12 0 22 -4 22 -9 0
-5 9 -13 21 -16 11 -4 18 -9 15 -12 -8 -9 41 -44 64 -46 11 -1 20 -7 20 -14 0
-6 5 -15 12 -19 7 -4 8 -3 4 4 -4 8 -2 10 8 6 8 -3 12 -12 9 -20 -3 -10 0 -12
10 -8 10 3 24 -4 38 -20 13 -14 29 -26 37 -26 8 0 23 -10 33 -22 11 -11 19
-16 19 -9 0 6 14 -2 31 -19 18 -16 41 -30 51 -30 11 0 17 -4 14 -9 -3 -5 1
-12 10 -15 10 -4 13 -2 9 7 -4 6 0 4 9 -7 8 -10 19 -15 24 -12 5 3 16 -2 23
-12 13 -16 13 -16 -6 -2 -19 14 -19 14 -6 -3 8 -9 16 -15 19 -13 7 8 82 -33
82 -45 0 -6 5 -7 11 -4 6 4 17 -1 25 -11 9 -11 13 -13 9 -4 -4 8 3 4 14 -9 12
-13 21 -18 21 -12 0 7 10 2 22 -9 12 -11 28 -18 35 -16 7 3 13 -1 13 -9 0 -15
8 -18 43 -18 9 0 17 -6 17 -14 0 -8 4 -11 10 -8 6 3 10 1 10 -4 0 -6 5 -11 11
-11 5 0 7 5 4 11 -4 6 2 5 13 -2 12 -7 18 -17 16 -21 -3 -5 -2 -8 3 -7 20 3
34 -2 28 -11 -3 -5 0 -7 8 -4 8 3 21 -2 30 -10 12 -12 17 -13 20 -3 4 9 6 9 6
-1 1 -7 6 -10 11 -7 6 3 10 1 10 -5 0 -7 7 -9 16 -6 10 4 13 2 8 -6 -5 -7 0
-9 14 -6 14 4 20 2 15 -5 -4 -6 0 -8 10 -4 9 3 19 1 23 -5 4 -6 3 -8 -4 -4 -6
3 -14 1 -18 -6 -4 -7 -4 -10 1 -6 4 4 17 3 28 -3 14 -8 18 -8 13 0 -13 20 9
12 24 -9 14 -19 37 -29 26 -12 -3 5 1 9 9 9 8 0 13 -5 12 -11 -1 -6 6 -10 16
-10 9 1 17 -3 17 -8 0 -6 7 -7 16 -4 12 4 15 2 10 -9 -5 -13 -2 -14 15 -4 15
8 19 8 15 0 -5 -7 1 -11 14 -11 14 0 19 -4 14 -12 -6 -10 -5 -10 8 0 12 10 18
9 28 -3 7 -8 16 -12 21 -9 5 3 9 0 9 -5 0 -6 11 -11 23 -11 24 0 83 -25 91
-39 3 -4 20 -6 40 -6 19 1 33 -1 32 -4 -2 -3 2 -12 10 -19 8 -7 14 -8 14 -2 0
12 20 9 37 -7 7 -6 22 -9 33 -6 11 3 20 0 20 -6 0 -6 7 -8 17 -4 11 4 14 3 9
-5 -5 -8 -2 -10 8 -6 10 4 16 1 16 -7 0 -11 3 -11 10 1 7 11 10 11 10 2 0 -7
8 -12 18 -10 9 2 16 -2 15 -8 -1 -6 4 -11 12 -11 8 0 12 4 9 9 -3 4 0 8 5 8 6
0 11 -5 11 -11 0 -5 4 -8 9 -4 5 3 17 -2 25 -11 9 -8 16 -11 16 -5 0 6 7 11
15 11 8 0 15 -5 15 -11 0 -7 10 -9 25 -7 14 3 28 2 30 -3 3 -4 15 -6 26 -4 17
3 18 1 10 -9 -10 -11 -5 -13 24 -10 26 2 34 0 28 -9 -4 -7 0 -7 10 2 14 11 18
11 23 -3 3 -9 10 -16 16 -16 5 0 6 6 2 13 -6 9 -5 9 7 0 8 -7 29 -10 47 -8 19
2 30 0 27 -5 -5 -9 15 -15 38 -11 4 0 7 -5 7 -11 0 -9 4 -8 10 2 8 12 10 12
10 1 0 -10 3 -11 13 -2 9 6 17 7 23 1 5 -5 24 -10 42 -12 17 -1 32 -6 32 -11
0 -4 5 -5 10 -2 6 4 18 1 27 -7 14 -11 16 -11 8 1 -6 11 -4 13 10 8 9 -4 25
-2 34 5 13 10 14 10 4 -2 -20 -21 -15 -32 7 -18 15 10 22 10 32 0 16 -16 31
-16 22 1 -4 6 2 3 14 -7 15 -13 22 -15 22 -6 0 10 4 9 17 -1 15 -12 16 -12 8
1 -6 12 -5 13 6 3 15 -15 33 -17 24 -3 -3 5 7 3 21 -5 20 -10 33 -11 47 -3 15
8 18 7 12 -3 -6 -8 -4 -11 7 -7 8 4 21 3 28 -2 7 -4 25 -4 40 0 20 6 32 4 45
-9 10 -9 15 -10 11 -3 -5 7 -1 12 9 12 9 0 13 -4 10 -10 -3 -5 -1 -10 4 -10 6
0 11 4 11 8 0 5 7 9 15 9 8 0 12 -4 9 -9 -8 -12 10 -10 24 4 9 9 12 9 12 -2 0
-11 3 -11 12 -2 7 7 17 12 23 12 5 0 3 -5 -5 -10 -12 -8 -10 -10 10 -9 14 1
35 -2 48 -5 13 -3 20 -1 17 5 -4 5 -1 9 4 9 6 0 11 -8 12 -17 0 -15 2 -15 9 2
5 11 9 14 9 6 1 -11 4 -11 18 0 14 12 16 12 8 0 -6 -11 -2 -13 23 -8 18 4 34
2 38 -4 4 -6 14 -4 27 8 11 10 17 13 14 7 -4 -7 0 -15 9 -18 9 -3 12 -2 9 4
-8 12 64 11 80 -1 6 -4 17 -4 24 0 7 5 22 6 34 3 15 -4 18 -2 12 9 -6 11 -5
12 6 1 16 -15 33 -16 23 0 -5 7 -3 8 6 3 20 -12 71 -14 64 -3 -4 6 1 6 13 0
12 -7 25 -7 36 -1 13 8 17 6 18 -8 0 -16 1 -16 9 2 6 14 9 15 10 5 0 -12 4
-11 15 4 9 12 15 15 15 7 0 -7 6 -11 15 -8 8 4 17 2 21 -4 4 -6 13 -4 24 6 12
11 20 13 25 5 5 -8 11 -8 21 1 11 9 14 8 14 -2 0 -11 2 -11 10 1 9 13 10 13
10 0 0 -12 2 -12 8 -2 5 8 16 10 27 6 10 -4 16 -3 13 2 -7 11 74 10 92 -1 9
-6 11 -4 5 5 -6 10 -4 12 7 7 9 -3 21 0 27 6 8 8 11 8 11 -2 0 -7 5 -9 10 -6
6 4 7 12 3 18 -3 7 3 4 15 -7 21 -18 22 -18 30 4 7 20 10 21 15 6 5 -13 11
-15 26 -7 10 6 21 7 25 3 4 -3 12 0 17 8 8 11 12 12 16 3 3 -10 8 -9 20 3 14
13 17 13 35 -2 18 -17 19 -17 12 1 -6 14 -4 17 8 13 9 -4 21 -1 28 5 10 9 11
9 6 0 -8 -15 10 -18 19 -3 3 5 12 7 20 3 11 -4 14 0 9 13 -6 17 -5 17 9 -1 9
-11 17 -15 17 -7 0 6 7 12 16 12 9 0 13 -5 9 -12 -4 -7 1 -4 9 6 12 15 16 16
16 5 0 -12 2 -12 9 0 5 7 14 10 20 7 6 -4 11 -2 11 5 0 8 4 8 15 -1 12 -10 16
-9 21 5 5 13 9 14 15 3 7 -11 9 -11 9 1 0 9 8 11 26 7 22 -6 25 -4 20 10 -5
14 -4 15 8 5 11 -9 15 -9 19 1 4 10 6 10 6 -1 1 -11 4 -11 16 -1 8 7 24 10 35
7 11 -3 18 -1 15 3 -6 10 70 24 85 15 5 -3 7 0 4 9 -4 11 2 14 28 13 19 -1 39
4 46 13 12 13 13 13 6 0 -7 -13 -5 -13 8 -2 13 10 17 10 21 0 3 -8 6 -6 6 5 1
10 6 15 11 12 6 -4 18 -1 26 6 8 6 17 9 21 6 3 -4 12 -2 20 4 7 6 22 9 33 6
11 -3 18 -1 14 4 -3 5 0 9 6 9 6 0 8 5 4 12 -4 7 -3 8 4 4 6 -4 8 -14 5 -24
-4 -11 2 -8 16 8 12 14 19 19 15 11 -5 -10 -3 -12 7 -5 8 4 19 9 24 11 6 1 26
7 45 14 76 27 110 43 110 52 0 5 8 3 17 -4 15 -12 16 -12 10 5 -6 15 -5 17 7
7 11 -9 15 -8 20 5 5 14 9 14 23 3 9 -8 14 -9 11 -4 -4 6 2 17 14 24 15 9 18
9 13 0 -5 -7 -3 -10 6 -7 8 3 13 11 11 18 -3 11 0 11 12 0 13 -10 16 -10 16 0
0 8 3 10 7 7 3 -4 12 1 20 11 9 11 12 11 7 2 -6 -12 -4 -13 6 -3 10 10 17 10
27 1 8 -6 13 -7 12 -2 -4 23 2 36 16 30 8 -3 15 -1 15 5 0 6 5 7 10 4 6 -3 24
4 41 15 16 12 33 20 36 16 3 -3 12 2 20 12 8 9 11 11 7 3 -8 -16 8 -9 40 18
16 13 18 13 12 1 -7 -13 -6 -13 6 0 7 8 20 16 28 18 8 2 18 9 22 15 4 7 8 8 8
3 0 -5 8 -2 17 5 14 12 16 12 9 -1 -4 -8 2 -4 14 10 12 14 19 18 15 10 -4 -10
-1 -9 8 3 16 20 31 23 22 5 -4 -7 1 -4 9 6 9 11 16 16 16 11 0 -5 7 0 16 11 8
10 13 12 9 4 -6 -13 -5 -13 7 0 7 8 20 15 28 15 8 0 14 6 12 13 -1 7 3 12 10
11 28 -3 39 1 32 13 -4 7 -4 10 1 6 4 -4 15 -2 23 5 13 10 14 9 7 -2 -6 -10
-4 -12 4 -7 7 5 10 14 8 21 -4 8 3 11 19 9 13 -1 27 3 31 9 13 19 53 38 65 31
7 -5 9 -2 5 9 -4 12 -2 14 10 10 12 -5 14 -3 8 7 -6 10 -4 12 8 7 10 -3 17 -2
17 3 0 6 7 10 16 10 10 0 14 6 11 14 -4 10 2 13 23 12 16 -1 27 1 24 5 -2 4 6
9 17 12 12 3 18 10 15 16 -4 6 2 8 15 6 17 -4 19 -2 8 11 -10 12 -9 13 3 9 9
-4 23 1 32 10 9 9 16 13 16 8 0 -4 4 -2 9 5 4 7 17 14 29 15 17 1 19 4 9 17
-6 8 -7 12 -2 7 4 -4 18 2 30 13 13 12 32 22 43 23 11 0 19 4 16 8 -2 4 3 12
11 19 8 7 15 9 15 4 0 -4 7 1 15 12 8 10 15 15 15 10 0 -6 6 -1 14 10 8 10 19
20 25 20 6 1 16 2 22 3 5 0 7 6 3 13 -5 8 0 9 15 5 19 -5 20 -3 9 11 -8 10 -9
13 -1 9 6 -4 14 -3 18 3 4 6 11 8 16 5 5 -4 6 2 2 11 -5 14 -3 16 11 11 10 -4
15 -3 11 3 -6 9 6 13 21 8 4 -2 11 7 15 20 5 13 13 20 19 17 5 -3 10 -1 10 5
0 6 3 9 8 7 10 -7 32 19 24 29 -4 4 1 4 11 1 10 -4 16 -3 12 2 -7 13 35 42 49
34 6 -3 8 -3 4 2 -8 9 16 35 32 35 7 0 9 7 6 16 -6 14 -4 15 9 4 13 -11 16
-11 13 1 -2 8 3 13 12 11 8 -2 12 -1 8 3 -8 9 20 39 45 48 10 4 16 11 13 16
-7 10 18 34 27 25 3 -3 14 -1 24 5 10 6 12 11 5 11 -10 0 -10 3 0 14 7 8 16
12 20 10 4 -2 10 5 13 17 6 16 9 18 15 8 6 -9 10 -6 15 14 4 14 11 25 15 24 4
-1 19 10 33 25 14 15 28 24 31 21 3 -4 6 1 6 11 0 9 11 21 24 26 13 5 27 15
31 22 6 10 5 11 -6 0 -7 -6 -18 -12 -23 -12 -6 0 1 8 14 17 14 10 28 17 33 15
4 -1 6 1 5 5 -4 12 39 52 48 45 5 -4 2 2 -6 12 -8 11 -10 17 -3 13 6 -4 24 4
40 19 15 15 21 24 13 20 -8 -4 -6 -1 4 8 10 8 22 13 27 11 4 -3 11 0 15 6 4 8
3 9 -4 5 -7 -4 -12 -2 -12 3 0 6 7 11 15 11 8 0 15 9 15 21 0 11 3 18 8 16 4
-3 18 12 31 34 14 21 27 36 29 34 3 -3 -3 -15 -14 -27 l-19 -23 23 19 c12 11
22 28 22 38 0 11 5 16 10 13 6 -3 10 -1 10 5 0 6 17 28 37 47 21 20 31 33 23
28 -8 -5 -2 4 13 18 16 15 25 32 21 39 -4 7 -3 8 4 4 7 -4 12 -2 12 4 0 7 6
10 14 7 9 -4 12 2 10 18 -2 19 2 23 18 20 16 -4 18 -2 8 10 -11 14 -7 19 13
16 7 -1 11 15 8 32 0 4 6 7 16 7 9 0 13 3 10 7 -4 3 1 12 11 20 10 9 11 12 2
7 -8 -4 -3 4 13 19 15 14 27 32 27 39 0 7 12 24 28 38 15 14 21 21 12 15 -10
-6 -9 -2 4 12 10 13 22 20 26 18 4 -3 7 3 6 13 0 9 4 16 10 15 7 -1 11 5 10
15 0 9 4 16 10 15 7 -1 11 5 10 15 0 10 5 16 13 14 12 -3 12 -1 0 14 -9 12 -9
15 -1 10 7 -4 12 -2 12 8 0 8 5 18 12 22 7 5 8 2 3 -7 -5 -10 -5 -11 3 -4 5 6
12 19 14 30 2 11 10 19 18 17 11 -3 11 0 0 12 -9 12 -9 16 -1 16 7 0 9 4 6 10
-3 5 0 7 9 4 11 -4 14 0 11 15 -3 14 0 19 7 15 7 -5 9 -1 5 9 -4 10 -2 16 6
14 7 -1 11 4 9 11 -1 6 5 12 14 12 14 0 14 3 4 16 -8 8 -9 14 -4 12 5 -2 10 2
12 7 2 6 12 20 24 32 11 12 17 26 13 32 -3 6 -2 11 4 11 6 0 13 11 17 24 3 14
12 27 20 30 8 3 11 12 7 22 -4 12 -3 15 5 10 7 -4 12 -1 12 9 0 9 4 14 9 10 6
-3 8 4 6 15 -2 11 1 20 7 20 5 0 8 7 4 15 -3 9 0 15 9 15 8 0 14 3 14 8 -4 21
3 32 19 33 9 0 12 3 6 5 -7 3 -10 14 -7 24 3 11 9 17 14 14 5 -2 11 7 15 21 3
14 11 25 18 25 6 0 4 5 -4 10 -12 7 -12 10 -1 10 7 0 11 6 8 15 -4 8 -1 17 5
21 7 5 8 2 3 -6 -6 -9 -4 -11 4 -6 7 5 10 15 7 23 -4 11 -2 13 9 9 12 -4 13
-2 5 13 -7 14 -6 20 5 25 8 3 12 14 10 26 -3 16 0 20 10 16 18 -7 19 6 3 23
-11 10 -9 11 5 5 10 -3 17 -3 16 2 -5 26 2 45 14 38 7 -5 6 0 -3 11 -14 17
-13 18 5 11 11 -4 16 -4 12 0 -4 4 -1 14 6 22 10 13 9 14 -3 7 -13 -8 -13 -7
-1 8 7 9 10 17 6 17 -4 0 -2 7 5 15 6 8 9 19 5 25 -3 5 1 10 9 10 9 0 15 3 15
8 -4 21 2 32 14 26 8 -5 8 -2 -2 9 -9 12 -10 17 -2 17 7 0 9 5 6 10 -3 5 -2
10 4 10 6 0 7 7 4 17 -5 12 -3 14 7 8 10 -6 12 -4 7 8 -3 10 -2 17 4 17 6 0 8
4 4 9 -3 5 2 17 11 25 8 9 11 16 5 16 -6 0 -8 7 -5 15 4 8 10 12 15 9 13 -8
11 10 -3 25 -9 10 -9 12 -1 7 6 -3 14 -2 18 4 3 5 0 10 -7 10 -8 0 -7 4 4 11
10 5 15 16 12 24 -4 8 -1 15 6 15 10 0 10 3 0 15 -11 13 -10 14 3 9 12 -4 14
-1 10 15 -3 12 -1 21 5 21 6 0 9 8 8 18 -2 9 4 23 13 30 12 10 12 12 1 6 -12
-6 -13 -5 -3 7 10 12 10 18 0 29 -10 10 -9 11 2 5 11 -6 13 -4 8 9 -4 9 -3 15
2 12 5 -3 12 1 15 10 4 10 2 13 -7 8 -8 -5 -8 -2 2 9 7 9 11 24 7 32 -3 9 1
18 9 21 8 4 13 10 10 14 -3 5 -1 19 4 33 7 17 6 28 -2 36 -9 9 -8 11 7 5 16
-6 18 -4 14 19 -3 15 -1 27 5 27 6 0 7 3 4 7 -4 3 -1 13 6 21 9 13 9 14 0 8
-9 -5 -11 -2 -7 8 3 9 9 14 13 11 4 -2 7 13 6 33 -2 43 4 64 15 57 10 -6 8 15
-3 32 -4 6 -2 15 4 19 8 5 9 3 4 -6 -5 -8 -4 -11 3 -7 5 4 8 17 4 29 -4 15 -2
19 8 13 10 -6 10 -4 2 11 -8 14 -6 21 6 32 10 7 11 10 3 6 -10 -5 -11 -1 -6
17 5 13 8 33 9 44 1 11 6 23 11 27 6 5 5 8 -3 8 -7 0 -10 5 -7 10 4 6 12 7 18
3 7 -4 6 0 -2 10 -11 14 -11 17 0 17 11 0 11 2 -1 10 -10 6 -11 10 -3 10 8 0
11 11 9 30 -2 21 1 30 11 30 8 0 11 5 8 10 -4 6 -11 8 -16 5 -5 -3 -6 1 -3 9
3 9 10 13 15 10 13 -7 7 19 -6 28 -6 5 -5 8 3 8 7 0 10 5 7 10 -3 5 0 10 7 10
9 0 9 3 -2 10 -12 8 -13 11 -1 19 11 7 11 9 0 14 -8 3 -9 6 -2 6 6 1 9 10 6
22 -4 12 0 25 8 30 12 7 12 9 0 9 -10 0 -11 3 -2 14 9 11 9 15 -1 19 -11 4
-10 6 0 6 7 1 10 6 7 11 -3 6 -1 10 6 10 8 0 8 4 1 13 -7 8 -7 18 -2 27 5 8 4
22 -2 33 -8 15 -7 18 3 12 9 -6 11 -3 6 8 -4 10 -1 17 6 17 8 0 8 3 -2 9 -9 6
-10 11 -2 15 16 10 13 24 -6 29 -15 4 -15 5 2 6 16 1 17 3 5 11 -12 7 -12 12
4 28 13 15 14 22 5 28 -8 4 -10 3 -5 -4 4 -7 2 -12 -4 -12 -7 0 -9 7 -6 16 3
9 6 18 6 20 0 3 4 3 9 0 4 -3 5 12 1 34 -5 27 -4 40 4 40 6 0 4 5 -4 10 -8 5
-10 10 -5 10 6 0 10 68 10 184 0 101 -3 182 -7 179 -5 -2 -4 6 1 19 5 13 5 33
0 46 -5 12 -5 22 -1 22 4 0 6 18 4 40 -2 22 -8 37 -13 34 -5 -3 -6 2 -3 10 3
9 10 13 15 10 5 -3 6 2 3 10 -3 9 -11 16 -16 16 -6 0 -5 6 2 15 10 12 10 15 0
15 -10 0 -10 3 0 15 9 10 9 15 1 15 -6 0 -11 5 -11 11 0 5 4 8 8 5 5 -3 9 1 9
9 0 8 -5 11 -10 8 -5 -3 -7 0 -5 8 3 8 1 22 -4 33 -7 13 -7 16 1 11 8 -5 10 2
5 22 -4 15 -8 41 -8 56 0 21 -3 26 -15 22 -11 -4 -10 -1 4 15 14 15 15 20 4
20 -11 0 -11 2 1 10 13 8 12 10 -3 10 -17 0 -17 1 -3 16 19 18 21 31 4 16 -10
-8 -13 -1 -13 31 1 23 -4 48 -10 56 -12 17 -11 21 7 32 10 7 9 9 -4 9 -10 0
-18 5 -18 11 0 5 4 8 9 5 4 -3 6 6 3 19 -2 14 -9 22 -15 18 -6 -4 -7 -1 -2 8
12 19 14 49 3 55 -4 3 -6 10 -3 15 4 5 2 9 -4 9 -6 0 -8 7 -5 15 4 8 1 22 -5
29 -9 10 -9 16 -1 21 8 5 6 13 -6 26 -9 11 -14 22 -11 26 4 3 7 0 7 -7 0 -7 3
-10 7 -7 3 4 -2 17 -13 29 -10 12 -13 18 -6 14 6 -4 12 -2 12 3 0 6 -4 11 -10
11 -5 0 -7 13 -5 29 3 24 0 29 -12 24 -12 -5 -14 -3 -8 8 13 19 14 49 2 42 -6
-4 -8 3 -5 15 4 12 1 22 -4 22 -6 0 -5 6 2 15 11 13 10 14 -3 10 -11 -5 -15 0
-15 17 0 34 -6 54 -22 74 -14 17 -13 18 2 6 14 -12 16 -11 11 8 -3 11 -9 23
-14 25 -4 3 -5 13 -2 22 5 12 3 14 -8 8 -11 -6 -12 -5 -1 6 6 7 12 18 12 24 0
5 -5 3 -10 -5 -8 -12 -10 -10 -11 10 -4 51 -5 55 -17 52 -10 -2 -10 3 -2 17 7
14 7 22 -2 27 -7 5 -8 3 -3 -6 5 -9 4 -11 -4 -6 -9 6 -9 11 1 24 11 13 11 14
-1 7 -11 -6 -13 -4 -8 8 4 10 2 17 -4 17 -6 0 -9 7 -5 15 3 8 0 15 -6 15 -6 0
-8 3 -5 7 4 3 1 13 -6 21 -6 9 -7 13 -1 9 6 -3 11 0 11 7 0 9 -7 12 -15 8 -11
-4 -14 -1 -10 10 4 9 1 21 -5 28 -9 10 -9 11 0 6 9 -5 11 -2 7 8 -3 9 -11 13
-17 9 -6 -4 -8 0 -4 10 9 23 -2 49 -17 40 -6 -3 -8 -3 -4 2 4 4 2 15 -5 23 -9
13 -9 14 1 8 6 -4 12 -2 12 3 0 6 -5 11 -11 11 -5 0 -7 5 -4 10 3 6 1 10 -6
10 -7 0 -9 8 -6 21 4 14 2 19 -7 16 -9 -4 -11 2 -8 19 2 14 0 24 -7 24 -7 0
-10 4 -6 9 3 5 1 12 -5 16 -5 3 -10 14 -10 24 0 9 -9 36 -20 59 -11 22 -20 46
-20 52 0 6 -4 9 -9 6 -5 -3 -8 7 -7 23 1 16 0 29 -3 29 -21 -2 -30 4 -25 15 3
8 -2 19 -10 26 -8 7 -12 20 -9 28 4 10 2 14 -4 10 -6 -4 -9 3 -7 18 1 14 -2
27 -7 31 -5 3 -6 10 -3 16 4 6 3 9 -2 6 -5 -3 -15 0 -22 8 -7 8 -10 14 -6 14
3 0 0 8 -7 17 -12 15 -12 16 1 8 12 -7 13 -6 3 7 -7 8 -9 19 -5 23 4 5 1 5 -5
1 -12 -6 -18 5 -14 27 0 4 -4 7 -10 7 -7 0 -9 9 -6 21 5 17 3 18 -11 7 -12
-10 -14 -10 -8 0 4 6 3 12 -3 12 -5 0 -8 9 -6 20 2 11 0 18 -6 15 -5 -4 -9 3
-9 14 0 12 -4 21 -8 21 -5 0 -14 16 -22 35 -8 19 -19 35 -24 35 -6 0 -4 5 4
10 13 9 13 10 0 11 -8 1 -18 1 -22 0 -12 -2 -9 14 5 28 6 8 8 12 2 9 -5 -3
-18 3 -27 13 -12 12 -13 19 -5 23 7 2 3 5 -8 5 -17 1 -17 3 -5 11 12 8 12 10
-5 10 -17 0 -17 2 -5 10 13 8 12 10 -2 10 -11 0 -18 8 -18 20 0 11 -7 20 -15
20 -8 0 -15 5 -15 11 0 5 6 7 13 4 6 -4 4 0 -5 8 -10 8 -18 19 -18 26 0 6 -5
11 -11 11 -5 0 -7 5 -4 10 3 6 -2 10 -12 10 -15 0 -16 2 -3 10 13 8 12 10 -2
10 -10 0 -18 7 -18 16 0 9 -8 23 -17 31 -10 8 -12 11 -4 7 9 -5 12 -3 7 4 -4
7 -14 12 -23 12 -13 0 -14 2 -2 17 10 11 10 14 2 9 -8 -4 -13 -1 -13 8 0 9 -7
16 -16 16 -10 0 -14 6 -11 14 3 8 -1 17 -10 20 -9 4 -13 13 -9 22 3 8 2 13 -2
11 -7 -5 -37 22 -37 33 0 3 -6 4 -13 4 -10 -2 -10 1 -1 13 10 11 10 13 -1 11
-8 -2 -15 3 -16 10 -1 6 -2 17 -3 23 0 5 -5 7 -11 4 -5 -3 -10 1 -10 9 0 9 -4
16 -10 16 -5 0 -10 10 -10 22 0 12 -3 19 -6 15 -8 -7 -23 9 -46 48 -10 17 -22
29 -28 27 -7 -1 -9 2 -6 7 4 5 -7 24 -24 41 -16 17 -30 35 -30 41 0 6 -4 7
-10 4 -5 -3 -10 4 -10 15 0 16 -4 20 -16 16 -10 -4 -14 -1 -11 6 2 7 -5 19
-17 26 -16 10 -16 12 -3 8 11 -3 15 -2 12 4 -3 6 -13 10 -21 10 -8 0 -12 5 -9
10 3 6 -4 10 -17 11 -13 0 -17 3 -11 6 15 5 2 21 -32 41 -11 6 -14 12 -7 12 6
0 12 4 12 10 0 5 -3 9 -7 9 -21 -3 -32 3 -38 21 -3 11 -13 20 -21 20 -8 0 -13
3 -13 8 3 16 -1 35 -7 30 -5 -6 -54 38 -54 48 0 11 -28 33 -34 27 -3 -4 -6 1
-6 11 0 9 -4 14 -10 11 -5 -3 -10 1 -10 9 0 9 -7 16 -16 16 -10 0 -14 5 -10
16 3 8 2 12 -4 9 -6 -3 -10 -1 -10 5 0 6 -4 8 -10 5 -5 -3 -10 0 -10 8 0 8 -8
21 -17 28 -17 13 -17 13 -3 -6 14 -19 14 -19 -2 -6 -10 7 -18 18 -18 23 0 5
-7 16 -15 24 -8 9 -15 12 -15 7 0 -4 -7 3 -16 15 -8 12 -20 20 -25 17 -5 -4
-9 0 -9 8 0 17 -67 73 -82 69 -5 -1 -7 2 -3 8 3 5 1 10 -5 10 -6 0 -8 5 -5 10
3 6 -3 10 -15 10 -12 0 -19 3 -17 8 2 4 -6 17 -19 29 -15 15 -24 18 -27 10 -3
-7 -6 -5 -6 5 -1 9 -10 20 -22 23 -11 4 -18 9 -15 12 2 3 -1 11 -7 18 -8 9
-16 10 -24 3 -10 -8 -13 -5 -13 11 0 13 -6 21 -16 21 -9 0 -18 9 -21 20 -5 17
-8 18 -21 8 -9 -7 -13 -8 -10 -3 3 6 -5 20 -18 33 -13 12 -24 20 -24 17 0 -3
-6 0 -14 7 -8 7 -12 16 -9 20 2 4 -3 5 -11 2 -11 -4 -16 0 -16 11 0 11 -5 15
-15 11 -13 -5 -19 5 -16 26 0 4 -6 5 -14 2 -8 -4 -17 1 -21 10 -3 9 -11 13
-17 9 -6 -3 -21 7 -35 23 -13 16 -21 22 -18 14 4 -8 -1 -5 -10 8 -9 12 -23 22
-31 22 -8 0 -11 4 -8 10 4 6 -1 7 -11 3 -12 -4 -15 -3 -10 5 5 8 1 10 -10 5
-13 -5 -16 -3 -11 10 4 12 2 14 -10 10 -12 -5 -14 -3 -8 6 6 10 2 11 -15 6
-14 -4 -20 -3 -16 3 7 11 -36 42 -59 42 -9 0 -13 5 -10 10 3 6 -3 10 -14 10
-12 0 -21 7 -21 15 0 8 -5 15 -11 15 -5 0 -7 -6 -4 -12 4 -7 0 -5 -8 5 -8 9
-18 17 -22 17 -4 0 -14 8 -22 18 -9 10 -12 11 -7 2 4 -8 -3 -5 -15 8 -12 12
-26 20 -32 17 -5 -4 -9 -1 -9 4 0 6 -7 11 -15 11 -8 0 -15 5 -15 11 0 5 -5 7
-12 3 -8 -5 -9 -2 -5 10 6 14 4 15 -14 5 -15 -8 -19 -8 -15 0 6 10 -6 15 -26
12 -5 0 -8 7 -8 16 0 15 -2 16 -10 3 -8 -13 -10 -12 -10 3 0 10 -4 15 -10 12
-5 -3 -10 -2 -10 4 0 6 -7 7 -17 4 -10 -4 -14 -2 -10 4 4 6 -8 16 -26 24 -17
7 -38 20 -45 29 -10 13 -11 12 -6 -5 6 -20 5 -20 -10 -1 -9 11 -16 16 -16 10
0 -5 -4 -3 -9 4 -4 7 -18 14 -30 15 -12 1 -20 6 -17 14 3 8 -1 10 -11 6 -11
-5 -14 -3 -8 6 6 11 3 11 -16 0 -22 -11 -23 -11 -10 5 12 14 12 16 -3 10 -9
-4 -16 -1 -16 6 0 10 -4 9 -16 0 -8 -8 -14 -9 -12 -3 2 6 -1 11 -5 11 -5 1
-15 9 -24 19 -8 10 -11 11 -7 3 4 -9 -3 -6 -17 6 -13 12 -30 19 -38 16 -10 -3
-11 0 -5 9 6 11 3 10 -11 -1 -11 -9 -16 -10 -11 -2 4 7 2 12 -8 12 -8 0 -16 6
-19 13 -3 9 -9 9 -24 0 -17 -10 -20 -9 -19 5 0 10 -5 16 -13 14 -7 -1 -20 5
-28 15 -8 10 -12 12 -8 6 3 -7 2 -13 -3 -13 -6 0 -12 7 -16 15 -3 8 -12 12
-21 9 -8 -4 -15 -1 -15 6 0 9 -4 9 -17 -1 -10 -7 -15 -10 -11 -5 9 11 -14 35
-28 29 -7 -2 -15 1 -19 6 -3 6 -11 9 -16 6 -5 -4 -9 -1 -9 4 0 6 -5 11 -11 11
-5 0 -7 -6 -3 -12 4 -7 -5 -2 -21 12 -16 14 -25 19 -21 13 10 -18 -2 -16 -21
2 -8 8 -19 13 -24 10 -5 -4 -9 -1 -9 6 0 8 -5 7 -16 -2 -15 -12 -16 -11 -10
11 4 14 4 20 -1 13 -5 -8 -14 -9 -23 -3 -9 6 -20 4 -29 -3 -12 -9 -13 -9 -7 1
4 7 2 12 -4 12 -6 0 -8 4 -5 10 4 7 -2 7 -19 1 -18 -7 -28 -6 -36 5 -7 7 -23
12 -36 10 -16 -3 -21 0 -18 9 3 7 0 16 -7 21 -7 4 -10 3 -5 -4 4 -7 -1 -10
-14 -9 -11 1 -20 5 -20 10 0 5 -8 3 -17 -4 -11 -10 -14 -10 -9 -1 6 11 -11 17
-36 13 -5 0 -8 4 -8 10 0 7 -10 9 -25 7 -14 -3 -28 -1 -31 4 -3 5 -13 7 -21 4
-8 -3 -11 -1 -8 4 4 6 -5 10 -20 10 -14 0 -24 4 -21 8 3 5 -1 9 -9 9 -8 0 -12
-4 -9 -9 3 -4 -2 -5 -10 -2 -9 3 -14 9 -12 13 3 4 -11 6 -30 5 -19 -2 -32 1
-29 5 3 5 -2 12 -11 15 -10 4 -13 2 -8 -6 5 -8 2 -9 -12 -3 -10 4 -29 7 -41 6
-13 0 -23 4 -23 9 0 5 -7 6 -17 3 -10 -4 -14 -2 -10 4 8 12 -11 12 -31 -1 -7
-4 -12 -4 -11 1 3 20 -2 25 -16 13 -12 -10 -15 -10 -15 0 0 8 -10 11 -30 8
-18 -3 -35 1 -42 9 -9 11 -14 11 -26 1 -13 -11 -14 -11 -8 0 5 9 3 13 -5 11
-36 -4 -70 2 -63 12 4 8 0 8 -15 0 -16 -9 -21 -9 -21 0 0 8 -5 7 -17 -2 -12
-10 -15 -11 -9 -1 6 10 1 11 -21 7 -21 -5 -24 -4 -13 4 8 6 10 11 5 11 -6 0
-16 -5 -22 -11 -7 -7 -15 -5 -27 6 -9 9 -16 12 -16 5 0 -7 -6 -5 -16 4 -20 21
-25 20 -17 -1 5 -15 3 -16 -8 -5 -17 15 -43 16 -33 0 4 -6 -3 -4 -16 5 -18 13
-28 14 -44 5 -18 -10 -19 -9 -9 4 11 12 9 14 -7 13 -11 -1 -22 -4 -25 -7 -8
-7 -56 3 -51 11 3 4 -4 7 -14 7 -12 0 -16 -5 -12 -16 5 -13 3 -13 -14 1 -12
11 -26 14 -39 9 -11 -4 -24 -5 -28 -3 -5 3 -26 6 -48 8 -28 2 -37 0 -32 -8 5
-9 3 -9 -8 0 -20 16 -598 16 -618 0 -12 -9 -13 -9 -7 1 4 7 2 12 -6 12 -8 0
-20 -6 -27 -12 -11 -10 -13 -10 -7 0 5 7 1 12 -9 12 -9 0 -13 -5 -9 -11 4 -8
1 -8 -13 -1 -11 6 -25 7 -33 2 -9 -5 -19 -5 -27 2 -8 6 -13 7 -13 1 0 -11 -42
-9 -61 3 -7 4 -10 3 -6 -3z m-3763 -2117 c0 -2 -8 -10 -17 -17 -16 -13 -17
-12 -4 4 13 16 21 21 21 13z m1181 -7663 c13 -16 12 -17 -3 -4 -17 13 -22 21
-14 21 2 0 10 -8 17 -17z"/>
<path d="M2095 9689 c-4 -6 -5 -12 -2 -15 2 -3 7 2 10 11 7 17 1 20 -8 4z"/>
<path d="M1429 9073 c-13 -16 -12 -17 4 -4 9 7 17 15 17 17 0 8 -8 3 -21 -13z"/>
<path d="M1284 8908 l-19 -23 23 19 c21 18 27 26 19 26 -2 0 -12 -10 -23 -22z"/>
<path d="M1156 8753 c-6 -14 -5 -15 5 -6 7 7 10 15 7 18 -3 3 -9 -2 -12 -12z"/>
<path d="M203 6885 c0 -8 4 -12 9 -9 5 3 6 10 3 15 -9 13 -12 11 -12 -6z"/>
<path d="M9795 2289 c-4 -6 -5 -12 -2 -15 2 -3 7 2 10 11 7 17 1 20 -8 4z"/>
<path d="M1650 1536 c0 -2 8 -10 18 -17 15 -13 16 -12 3 4 -13 16 -21 21 -21
13z"/>
<path d="M2046 1185 c4 -8 11 -15 16 -15 6 0 5 6 -2 15 -7 8 -14 15 -16 15 -2
0 -1 -7 2 -15z"/>
<path d="M8425 950 c-3 -6 1 -7 9 -4 18 7 21 14 7 14 -6 0 -13 -4 -16 -10z"/>
</g>
</svg>
